{"title":"Mat Zo Live at Madison Square Garden 720p","uid":11338157,"size":1261033660,"categoryP":"video","categoryS":"music_videos","magnet":"?xt=urn:btih:ccc9b290b6a0c8530b1b20b3366c340f4e572c00&amp;dn=Mat+Zo+Live+at+Madison+Square+Garden+720p+&amp;tr=udp%3A%2F%2Ftracker.openbittorrent.com%3A80&amp;tr=udp%3A%2F%2Fopen.demonii.com%3A1337&amp;tr=udp%3A%2F%2Ftracker.coppersurfer.tk%3A6969&amp;tr=udp%3A%2F%2Fexodus.desync.com%3A6969","seeders":0,"leechers":1,"uploader":"Liebe_Ist","files":1,"time":1414770916,"description":"Mat.Zo.Live.at.Madison.Square.Garden.720p.VODRip.H264-Liebe_Ist.mp4\n\nFormat                         : MPEG-4\nFormat profile                 : Base Media / Version 2\nCodec ID                       : mp42\nFile size                      : 1.17 GiB\nDuration                       : 59mn 2s\nOverall bit rate mode          : Variable\nOverall bit rate               : 2 848 Kbps\n\nVideo\nFormat                         : AVC\nFormat/Info                    : Advanced Video Codec\nFormat profile                 : &lt;a class=&quot;__cf_email__&quot; href=&quot;/cdn-cgi/l/email-protection&quot; data-cfemail=&quot;f9b1909e91b9b5cad7c8&quot;&gt;[email&amp;#160;protected]&lt;/a&gt;&lt;script cf-hash='f9e31' type=&quot;text/javascript&quot;&gt;\n/* &lt;![CDATA[ */!function(){try{var t=&quot;currentScript&quot;in document?document.currentScript:function(){for(var t=document.getElementsByTagName(&quot;script&quot;),e=t.length;e--;)if(t[e].getAttribute(&quot;cf-hash&quot;))return t[e]}();if(t&amp;&amp;t.previousSibling){var e,r,n,i,c=t.previousSibling,a=c.getAttribute(&quot;data-cfemail&quot;);if(a){for(e=&quot;&quot;,r=parseInt(a.substr(0,2),16),n=2;a.length-n;n+=2)i=parseInt(a.substr(n,2),16)^r,e+=String.fromCharCode(i);e=document.createTextNode(e),c.parentNode.replaceChild(e,c)}}}catch(u){}}();/* ]]&gt; */&lt;/script&gt;\nFormat settings, CABAC         : Yes\nFormat settings, ReFrames      : 1 frame\nCodec ID                       : avc1\nCodec ID/Info                  : Advanced Video Coding\nDuration                       : 59mn 2s\nBit rate                       : 2 654 Kbps\nMaximum bit rate               : 13.0 Mbps\nWidth                          : 1 280 pixels\nHeight                         : 720 pixels\nDisplay aspect ratio           : 16:9\nFrame rate mode                : Constant\nFrame rate                     : 29.970 fps\nScan type                      : Progressive\nBits/(Pixel*Frame)             : 0.096\nStream size                    : 1.09 GiB (93%)\n\nAudio\nFormat                         : AAC\nFormat/Info                    : Advanced Audio Codec\nFormat profile                 : LC\nCodec ID                       : 40\nDuration                       : 59mn 2s\nBit rate mode                  : Variable\nBit rate                       : 192 Kbps\nMaximum bit rate               : 202 Kbps\nChannel count                  : 2 channels\nChannel positions              : Front: L R\nSampling rate                  : 44.1 KHz\nCompression mode               : Lossy\nStream size                    : 81.1 MiB (7%)","torrent":{"xt":"urn:btih:ccc9b290b6a0c8530b1b20b3366c340f4e572c00","amp;dn":"Mat+Zo+Live+at+Madison+Square+Garden+720p+","amp;tr":["udp%3A%2F%2Ftracker.openbittorrent.com%3A80","udp%3A%2F%2Fopen.demonii.com%3A1337","udp%3A%2F%2Ftracker.coppersurfer.tk%3A6969","udp%3A%2F%2Fexodus.desync.com%3A6969"],"infoHash":"ccc9b290b6a0c8530b1b20b3366c340f4e572c00","infoHashBuffer":{"type":"Buffer","data":[204,201,178,144,182,160,200,83,11,27,32,179,54,108,52,15,78,87,44,0]},"announce":[],"urlList":[]}}